<svg width="96" height="96" xmlns="http://www.w3.org/2000/svg" xmlns:xlink="http://www.w3.org/1999/xlink" xml:space="preserve" overflow="hidden"><defs><clipPath id="clip0"><rect x="53" y="21" width="96" height="96"/></clipPath></defs><g clip-path="url(#clip0)" transform="translate(-53 -21)"><path d="M100.917 53.6479C103.857 53.6478 106.241 51.2641 106.241 48.3237 106.241 45.3833 103.857 42.9998 100.917 42.9999 97.9764 43 95.5929 45.3835 95.5928 48.3237 95.596 51.2628 97.9779 53.6447 100.917 53.6479ZM100.917 45C102.753 45.0001 104.241 46.4884 104.241 48.3242 104.241 50.16 102.752 51.6481 100.917 51.648 99.0808 51.6479 97.5927 50.1596 97.5928 48.3238 97.5928 48.3238 97.5928 48.3237 97.5928 48.3237 97.595 46.4888 99.0821 45.0019 100.917 45Z"/><path d="M96.458 65.1875C96.4581 66.9338 97.8738 68.3493 99.6201 68.3492 101.366 68.3491 102.782 66.9334 102.782 65.1871 102.782 63.4409 101.366 62.0255 99.62 62.0254 97.8744 62.0273 96.4598 63.4419 96.458 65.1875ZM100.782 65.1875C100.782 65.8292 100.261 66.3493 99.6196 66.3492 98.9779 66.3491 98.4578 65.8288 98.4579 65.1871 98.458 64.5454 98.9783 64.0253 99.62 64.0254 100.261 64.0262 100.781 64.5461 100.782 65.1875Z"/><path d="M117.348 62.89C112.975 62.8897 109.429 66.4347 109.429 70.808 109.429 75.1813 112.974 78.7267 117.347 78.727 121.72 78.7273 125.266 75.1823 125.266 70.809 125.266 70.8088 125.266 70.8087 125.266 70.8085 125.261 66.4375 121.719 62.8952 117.348 62.89ZM117.348 76.727C114.079 76.7273 111.429 74.0777 111.429 70.809 111.429 67.5403 114.078 64.8903 117.347 64.89 120.616 64.8897 123.266 67.5393 123.266 70.808 123.266 70.8082 123.266 70.8083 123.266 70.8085 123.263 74.0756 120.615 76.7233 117.348 76.7271Z"/><path d="M90.6748 75.3486C90.6748 71.5724 87.6136 68.5112 83.8374 68.5112 80.0612 68.5112 77 71.5724 77 75.3486 77 79.1248 80.0612 82.186 83.8374 82.186 87.6118 82.1816 90.6704 79.123 90.6748 75.3486ZM83.8374 80.186C81.1658 80.186 79 78.0202 79 75.3486 79 72.677 81.1658 70.5112 83.8374 70.5112 86.509 70.5112 88.6748 72.677 88.6748 75.3486 88.6719 78.019 86.5078 80.1831 83.8374 80.186Z"/><path d="M83.0508 64.89 83.104 64.89C84.9063 64.8956 86.5584 63.8866 87.3765 62.2807 87.4536 62.1285 87.6226 62.0461 87.79 62.079L87.7905 62.079C90.3948 62.5892 92.9196 60.8916 93.4297 58.2873 93.9399 55.683 92.2423 53.1582 89.638 52.6481 89.6293 52.6464 89.6206 52.6447 89.6118 52.643 85.2531 51.8205 80.8705 53.9528 78.8276 57.89 78.1406 59.2363 78.1235 60.8266 78.7813 62.1874 79.5731 63.8283 81.2289 64.8765 83.0508 64.89ZM80.6069 58.8036C81.9884 56.1406 84.7369 54.4676 87.7369 54.4636 88.2388 54.4636 88.7396 54.5115 89.2325 54.6066 90.0985 54.7759 90.8352 55.341 91.2232 56.1335 91.9011 57.5265 91.3214 59.2052 89.9284 59.8831 89.3828 60.1486 88.7658 60.2301 88.17 60.1152 87.1303 59.9204 86.0856 60.4288 85.5973 61.3672 85.1266 62.3101 84.1588 62.9014 83.105 62.89L83.0723 62.89C82.0063 62.8907 81.0356 62.2763 80.58 61.3125 80.196 60.5181 80.2059 59.5897 80.6069 58.8037Z"/><path d="M111.935 56.06C111.629 57.8508 112.833 59.5506 114.623 59.8567 115.288 59.9703 115.972 59.8768 116.582 59.5888 117.519 59.1464 118.194 58.2907 118.407 57.2768 118.975 54.4843 117.644 51.6499 115.133 50.3031 114.216 49.8197 113.127 49.7928 112.188 50.2304 110.541 51.0035 109.833 52.965 110.606 54.6114 110.891 55.2184 111.355 55.7239 111.935 56.0604ZM113.038 52.0409C113.407 51.8691 113.835 51.8797 114.194 52.0697 115.923 52.9966 116.84 54.9479 116.449 56.8705 116.366 57.2688 116.1 57.6048 115.732 57.7782 115.085 58.0817 114.315 57.8037 114.012 57.1572 113.893 56.904 113.859 56.619 113.916 56.3451 114.079 55.5476 113.699 54.7379 112.981 54.3539 112.35 54.0185 112.111 53.2352 112.446 52.6043 112.577 52.3575 112.785 52.1599 113.038 52.0409Z"/><path d="M114.586 84.7686C113.621 84.6112 112.636 84.6251 111.676 84.8096 111.564 84.471 111.417 84.1446 111.24 83.8354 111.303 83.7502 111.354 83.6573 111.394 83.559 111.51 83.2802 111.757 83.0767 112.053 83.015 112.58 82.8493 112.873 82.2875 112.708 81.7602 112.55 81.2589 112.032 80.9647 111.521 81.0864 110.832 81.2722 110.235 81.7042 109.843 82.3007 109.217 81.8601 108.475 81.6126 107.71 81.5889 107.687 81.5884 107.665 81.5806 107.642 81.5789 107.855 81.1472 108.174 80.7764 108.568 80.5013 109.629 79.7847 108.629 78.0513 107.559 78.7744 107.031 79.1261 106.574 79.5724 106.209 80.0908 106.1 79.8128 106.009 79.5286 105.935 79.2397 105.772 78.6112 105.506 78.0143 105.147 77.4735 105.18 77.4403 105.212 77.4046 105.24 77.3667 105.47 76.944 105.886 76.6544 106.363 76.585 106.892 76.4337 107.202 75.8868 107.061 75.355 106.906 74.8296 106.362 74.5212 105.831 74.6566 104.988 74.8354 104.244 75.3259 103.747 76.03 103.455 75.8206 103.144 75.6397 102.817 75.49 102.864 74.9835 103.054 74.5007 103.365 74.0981 103.743 73.6951 103.722 73.0623 103.319 72.6846 102.93 72.3199 102.323 72.3248 101.94 72.6958 101.375 73.341 101.007 74.1345 100.879 74.9825 100.752 74.9725 100.629 74.9475 100.501 74.9453 100.146 74.9433 99.7913 74.9734 99.4418 75.0353 99.3349 74.497 99.3129 73.9453 99.3767 73.4002 99.3733 72.8493 98.9276 72.4036 98.3767 72.4002 97.8296 72.4124 97.3889 72.8531 97.3767 73.4002 97.2962 74.1824 97.3566 74.9726 97.5549 75.7335 97.0675 76.0235 96.63 76.3899 96.2589 76.8187 95.8156 76.5582 95.4265 76.2148 95.1129 75.8073 94.824 75.344 94.2237 75.1866 93.7447 75.4486 93.2713 75.73 93.1115 76.3394 93.386 76.8168 93.8864 77.5117 94.518 78.102 95.2452 78.5543 95.2008 78.6752 95.1446 78.7879 95.1074 78.9138L95.0464 79.1286C94.8537 79.8391 94.7516 80.5712 94.7425 81.3073 94.3852 81.3221 94.0282 81.2703 93.6898 81.1545 92.4661 80.746 91.9414 82.6768 93.1581 83.0832 93.7363 83.2721 94.3463 83.3438 94.9525 83.2941 95.1334 84.1228 95.4276 84.9227 95.8268 85.6711 95.3729 85.8013 94.9036 85.8699 94.4315 85.8753 93.8792 85.8944 93.447 86.3577 93.4661 86.9099 93.4843 87.4354 93.9061 87.8571 94.4315 87.8753 95.3063 87.8735 96.173 87.7081 96.9869 87.3876 97.13 87.5611 97.2622 87.7392 97.4185 87.9069 97.8729 88.387 98.3667 88.8282 98.8947 89.2259 98.6438 89.4734 98.3263 89.6426 97.981 89.7128 96.7259 89.9953 97.2571 91.924 98.5127 91.6415 99.3352 91.4491 100.068 90.9818 100.589 90.3168 101.167 90.629 101.77 90.8938 102.391 91.1085 102.263 91.6725 102.012 92.2012 101.656 92.6569 101.38 93.1342 101.54 93.7444 102.014 94.0251 102.493 94.2895 103.095 94.1317 103.383 93.6664 103.853 93.0482 104.177 92.3317 104.331 91.5705 104.818 91.6484 105.311 91.6902 105.804 91.6955 106.025 91.6955 106.243 91.6806 106.461 91.6647 106.36 92.0072 106.216 92.3357 106.034 92.6426 105.772 93.1295 105.955 93.7362 106.442 93.9977 106.904 94.2458 107.479 94.0951 107.76 93.6523 108.197 92.9106 108.475 92.0858 108.575 91.2307 109.431 90.9375 110.198 90.4298 110.803 89.7559 111.083 90.1066 111.137 90.5876 110.94 90.9912 110.796 91.5233 111.108 92.0718 111.638 92.2212 112.169 92.3534 112.71 92.0462 112.868 91.5228 113.353 90.2262 112.905 88.7656 111.777 87.9638 111.889 87.5786 111.955 87.1815 111.973 86.7807 112.656 86.6235 113.361 86.595 114.054 86.6969 114.584 86.8262 115.124 86.5201 115.284 85.9986 115.427 85.4667 115.116 84.9189 114.586 84.7686ZM107.106 89.5718C104.032 89.9891 100.951 88.8549 98.8812 86.5439 97.0727 84.7456 96.3481 82.126 96.9755 79.6539L97.0255 79.4786C97.4307 77.9551 98.8269 76.9075 100.403 76.9444 100.424 76.9444 100.445 76.9444 100.466 76.9449 102.147 76.9521 103.605 78.1067 103.998 79.7408 104.807 82.8717 106.439 83.5616 107.666 83.5885 108.946 83.6173 109.859 85.0085 109.97 86.2823 110.04 87.0859 109.902 89.0151 107.106 89.5718Z"/><path d="M84.88 60.5972C85.3625 59.3533 86.6891 58.6565 87.9871 58.9652 88.5249 59.0932 89.0646 58.761 89.1926 58.2233 89.3142 57.7122 89.02 57.194 88.5188 57.0366 86.3491 56.482 84.0926 57.5547 83.1531 59.5876 82.65 60.7573 84.3719 61.7772 84.88 60.5972Z"/><path d="M101 31C80.0132 31 63 48.0132 63 69 63 89.9868 80.0132 107 101 107 121.987 107 139 89.9868 139 69 138.976 48.0231 121.977 31.0239 101 31ZM101 105C81.1177 105 65 88.8822 65 69 65 49.1177 81.1177 33 101 33 120.882 33 137 49.1177 137 69 136.978 88.873 120.873 104.978 101 105Z"/><path d="M101 38C83.8792 38 70 51.8792 70 69 70 86.1208 83.8792 100 101 100 118.121 100 132 86.1208 132 69 131.98 51.8872 118.113 38.0195 101 38ZM101 98C84.9837 98 72 85.0163 72 69 72 52.9837 84.9837 40 101 40 117.016 40 130 52.9837 130 69 129.982 85.0088 117.009 97.9819 101 98Z"/><path d="M106.106 59.9514C106.796 59.9283 107.337 59.3499 107.314 58.6596 107.292 58.0016 106.764 57.4734 106.106 57.4514 105.415 57.4745 104.874 58.0529 104.897 58.7432 104.92 59.4012 105.448 59.9294 106.106 59.9514Z"/><path d="M91.4042 50.4387C92.0946 50.4156 92.6355 49.8372 92.6124 49.1469 92.5903 48.4889 92.0621 47.9607 91.4042 47.9387 90.7138 47.9618 90.1729 48.5402 90.196 49.2305 90.2181 49.8885 90.7463 50.4167 91.4042 50.4387Z"/><path d="M91.26 66.0994C90.5696 66.1225 90.0287 66.7009 90.0518 67.3912 90.0739 68.0492 90.6021 68.5774 91.26 68.5994 91.9504 68.5763 92.4913 67.9979 92.4682 67.3076 92.4461 66.6496 91.9179 66.1214 91.26 66.0994Z"/><path d="M89.6747 84.26C88.9843 84.2831 88.4434 84.8615 88.4665 85.5518 88.4886 86.2097 89.0168 86.738 89.6747 86.76 90.3651 86.7369 90.906 86.1585 90.8829 85.4682 90.8608 84.8102 90.3326 84.282 89.6747 84.26Z"/><path d="M119.077 80.8008C118.387 80.8239 117.846 81.4023 117.869 82.0926 117.891 82.7506 118.42 83.2788 119.077 83.3008 119.768 83.2777 120.309 82.6993 120.286 82.009 120.264 81.351 119.735 80.8228 119.077 80.8008Z"/></g></svg>